{
.appVersion = 961;
copyright = "Copyright 2017 Google Inc. All Rights Reserved.";
customParameters = (
{
name = glyphOrder;
value = (
.notdef,
NULL,
CR,
space,
u10381,
u10382,
u10383,
u10390,
u10388,
u1039D,
u1039F,
u10384,
u1038D,
u10385,
u10387,
u10389,
u1038A,
u1038C,
u1039A,
u10394,
u10395,
u10396,
u1039B,
u10393,
u10392,
u10391,
u10398,
u1038F,
u1039C,
u1038E,
u10399,
u10386,
u10397,
u1038B,
u10380,
uni00A0
);
},
{
name = description;
value = "Designed by Monotype design team.";
},
{
name = license;
value = "This Font Software is licensed under the SIL Open Font License, Version 1.1. This Font Software is distributed on an \"AS IS\" BASIS, WITHOUT WARRANTIES OR CONDITIONS OF ANY KIND, either express or implied. See the SIL Open Font License for the specific language, permissions and limitations governing your use of this Font Software.";
},
{
name = licenseURL;
value = "http://scripts.sil.org/OFL";
},
{
name = vendorID;
value = GOOG;
},
{
name = unicodeRanges;
value = (
0,
1,
57,
103
);
},
{
name = trademark;
value = "Noto is a trademark of Google Inc.";
},
{
name = "Has WWS Names";
value = 1;
},
{
name = versionString;
value = "Version 1.900";
},
{
name = fsType;
value = (
);
},
{
name = codePageRanges;
value = (
1252
);
}
);
date = "2017-01-17 17:53:34 +0000";
designer = "Monotype Design Team";
designerURL = "http://www.monotype.com/studio";
disablesAutomaticAlignment = 1;
disablesNiceNames = 1;
familyName = "Noto Sans Ugaritic";
fontMaster = (
{
alignmentZones = (
"{743, 15}",
"{723, 15}",
"{536, 15}",
"{0, -15}",
"{-112, -15}"
);
ascender = 743;
capHeight = 723;
customParameters = (
{
name = typoAscender;
value = 743;
},
{
name = typoDescender;
value = -381;
},
{
name = typoLineGap;
value = 0;
},
{
name = winAscent;
value = 743;
},
{
name = winDescent;
value = 381;
},
{
name = hheaAscender;
value = 743;
},
{
name = hheaDescender;
value = -381;
},
{
name = hheaLineGap;
value = 0;
},
{
name = underlinePosition;
value = -100;
},
{
name = underlineThickness;

glyphs = (
{
glyphname = .notdef;
lastChange = "2017-01-17 19:34:18 +0000";
layers = (
{
layerId = UUID0;
paths = (
{
closed = 1;
nodes = (
"505 0 LINE",
"505 714 LINE",
"94 714 LINE",
"94 0 LINE"
);
},
{
closed = 1;
nodes = (
"145 663 LINE",
"454 663 LINE",
"454 51 LINE",
"145 51 LINE"
);
}
);
width = 600;
}
);
},
{
glyphname = u10381;
lastChange = "2017-01-17 19:34:18 +0000";
layers = (
{
layerId = UUID0;
paths = (
{
closed = 1;
nodes = (
"552 209 LINE",
"569 465 OFFCURVE",
"603 649 OFFCURVE",
"635 736 CURVE",
"593 725 OFFCURVE",
"555 722 OFFCURVE",
"518 722 CURVE SMOOTH",
"485 722 OFFCURVE",
"453 725 OFFCURVE",
"420 729 CURVE",
"461 638 OFFCURVE",
"496 484 OFFCURVE",
"529 209 CURVE"
);
},
{
closed = 1;
nodes = (
"152 136 OFFCURVE",
"224 178 OFFCURVE",
"374 213 CURVE",
"374 235 LINE",
"235 254 OFFCURVE",
"146 296 OFFCURVE",
"100 330 CURVE",
"108 289 OFFCURVE",
"111 251 OFFCURVE",
"111 214 CURVE SMOOTH",
"111 174 OFFCURVE",
"107 136 OFFCURVE",
"103 97 CURVE"
);
},
{
closed = 1;
nodes = (
"292 209 LINE",
"309 465 OFFCURVE",
"343 649 OFFCURVE",
"375 736 CURVE",
"333 725 OFFCURVE",
"295 722 OFFCURVE",
"258 722 CURVE SMOOTH",
"225 722 OFFCURVE",
"193 725 OFFCURVE",
"160 729 CURVE",
"201 638 OFFCURVE",
"236 484 OFFCURVE",
"269 209 CURVE"
);
},
{
closed = 1;
nodes = (
"452 156 OFFCURVE",
"606 191 OFFCURVE",
"881 224 CURVE",
"881 247 LINE",
"625 264 OFFCURVE",
"441 298 OFFCURVE",
"354 330 CURVE",
"365 288 OFFCURVE",
"368 250 OFFCURVE",
"368 213 CURVE SMOOTH",
"368 180 OFFCURVE",
"365 148 OFFCURVE",
"361 115 CURVE"
);
}
);
width = 981;
}
);
unicode = 10381;
},
{
glyphname = u10382;
lastChange = "2017-01-17 19:34:18 +0000";
layers = (
{
layerId = UUID0;
paths = (
{
closed = 1;
nodes = (
"233 -112 LINE",
"247 381 OFFCURVE",
"270 569 OFFCURVE",
"316 736 CURVE",
"276 727 OFFCURVE",
"240 723 OFFCURVE",
"205 723 CURVE SMOOTH",
"169 723 OFFCURVE",
"134 727 OFFCURVE",
"100 736 CURVE",
"155 538 OFFCURVE",
"173 407 OFFCURVE",
"207 -112 CURVE"
);
}
);
width = 416;
}
);
unicode = 10382;
},
{
glyphname = u10383;
lastChange = "2017-01-17 19:34:18 +0000";
layers = (
{
layerId = UUID0;
paths = (
{
closed = 1;
nodes = (
"221 428 LINE",
"247 581 OFFCURVE",
"286 663 OFFCURVE",
"316 736 CURVE",
"282 729 OFFCURVE",
"249 727 OFFCURVE",
"216 727 CURVE SMOOTH",
"177 727 OFFCURVE",
"138 731 OFFCURVE",
"100 736 CURVE",
"133 667 OFFCURVE",
"169 581 OFFCURVE",
"195 428 CURVE"
);
},
{
closed = 1;
nodes = (
"221 -112 LINE",
"247 41 OFFCURVE",
"286 123 OFFCURVE",
"316 196 CURVE",
"282 189 OFFCURVE",
"249 187 OFFCURVE",
"216 187 CURVE SMOOTH",
"177 187 OFFCURVE",
"138 191 OFFCURVE",
"100 196 CURVE",
"133 127 OFFCURVE",
"169 41 OFFCURVE",
"195 -112 CURVE"
);
},
{
closed = 1;
nodes = (
"221 158 LINE",
"247 311 OFFCURVE",
"286 393 OFFCURVE",
"316 466 CURVE",
"282 459 OFFCURVE",
"249 457 OFFCURVE",
"216 457 CURVE SMOOTH",
"177 457 OFFCURVE",
"138 461 OFFCURVE",
"100 466 CURVE",
"133 397 OFFCURVE",
"169 311 OFFCURVE",
"195 158 CURVE"
);
}
);
width = 416;
}
);
unicode = 10383;
},
{
glyphname = u10390;
lastChange = "2017-01-17 19:34:18 +0000";
layers = (
{
layerId = UUID0;
paths = (
{
closed = 1;
nodes = (
"877 202 OFFCURVE",
"1037 200 OFFCURVE",
"1167 209 CURVE",
"1167 235 LINE",
"1001 249 OFFCURVE",
"873 261 OFFCURVE",
"640 330 CURVE",
"647 296 OFFCURVE",
"649 263 OFFCURVE",
"649 230 CURVE SMOOTH",
"649 191 OFFCURVE",
"645 152 OFFCURVE",
"640 114 CURVE"
);
},
{
closed = 1;
nodes = (
"169 147 OFFCURVE",
"255 183 OFFCURVE",
"408 209 CURVE",
"408 235 LINE",
"255 261 OFFCURVE",
"173 300 OFFCURVE",
"100 330 CURVE",
"107 296 OFFCURVE",
"109 263 OFFCURVE",
"109 230 CURVE SMOOTH",
"109 191 OFFCURVE",
"105 152 OFFCURVE",
"100 114 CURVE"
);
},
{
closed = 1;
nodes = (
"439 147 OFFCURVE",
"525 183 OFFCURVE",
"678 209 CURVE",
"678 235 LINE",
"525 261 OFFCURVE",
"443 300 OFFCURVE",
"370 330 CURVE",
"377 296 OFFCURVE",
"379 263 OFFCURVE",
"379 230 CURVE SMOOTH",
"379 191 OFFCURVE",
"375 152 OFFCURVE",
"370 114 CURVE"
);
}
);
width = 1267;
}
);
unicode = 10390;
},
{
glyphname = u10388;
lastChange = "2017-01-17 19:34:18 +0000";
layers = (
{
layerId = UUID0;
paths = (
{
closed = 1;
nodes = (
"1027 -105 LINE",
"911 79 OFFCURVE",
"835 240 OFFCURVE",
"790 324 CURVE",
"835 408 OFFCURVE",
"911 544 OFFCURVE",
"1027 728 CURVE",
"1006 743 LINE",
"807 529 OFFCURVE",
"681 409 OFFCURVE",
"598 324 CURVE",
"686 244 OFFCURVE",
"807 94 OFFCURVE",
"1006 -120 CURVE"
);
},
{
closed = 1;
nodes = (
"665 -199 LINE",
"628 -132 OFFCURVE",
"576 -50 OFFCURVE",
"545 -9 CURVE",
"578 45 OFFCURVE",
"617 120 OFFCURVE",
"652 198 CURVE",
"632 210 LINE",
"556 127 OFFCURVE",
"457 38 OFFCURVE",
"390 -12 CURVE",
"462 -57 OFFCURVE",
"568 -140 OFFCURVE",
"646 -214 CURVE"
);
},
{
closed = 1;
nodes = (
"167 225 OFFCURVE",
"514 295 OFFCURVE",
"695 315 CURVE",
"695 339 LINE",
"514 359 OFFCURVE",
"163 403 OFFCURVE",
"100 422 CURVE",
"106 380 OFFCURVE",
"108 342 OFFCURVE",
"108 306 CURVE SMOOTH",
"108 272 OFFCURVE",
"106 239 OFFCURVE",
"104 206 CURVE"
);
},
{
closed = 1;
nodes = (
"541 -63 LINE",
"555 429 OFFCURVE",
"578 569 OFFCURVE",
"624 735 CURVE",
"587 728 OFFCURVE",
"550 724 OFFCURVE",
"514 724 CURVE SMOOTH",
"478 724 OFFCURVE",
"443 728 OFFCURVE",
"408 735 CURVE",
"463 538 OFFCURVE",
"481 455 OFFCURVE",
"515 -63 CURVE"
);
}
);
width = 1127;
}
);
unicode = 10388;
},
{
glyphname = u1039D;
lastChange = "2017-01-17 19:34:18 +0000";
layers = (
{
layerId = UUID0;
paths = (
{
closed = 1;
nodes = (
"450 -112 LINE",
"464 381 OFFCURVE",
"487 569 OFFCURVE",
"533 736 CURVE",
"493 727 OFFCURVE",
"457 723 OFFCURVE",
"422 723 CURVE SMOOTH",
"386 723 OFFCURVE",
"351 727 OFFCURVE",
"317 736 CURVE",
"372 538 OFFCURVE",
"390 407 OFFCURVE",
"424 -112 CURVE"
);
},
{
closed = 1;
nodes = (
"280 -98 LINE",
"250 -51 OFFCURVE",
"231 -11 OFFCURVE",
"209 28 CURVE",
"231 68 OFFCURVE",
"250 107 OFFCURVE",
"280 154 CURVE",
"263 165 LINE",
"173 86 OFFCURVE",
"136 60 OFFCURVE",
"100 28 CURVE",
"153 -10 OFFCURVE",
"174 -33 OFFCURVE",
"263 -112 CURVE"
);
},
{
closed = 1;
nodes = (
"280 187 LINE",
"250 234 OFFCURVE",
"231 274 OFFCURVE",
"209 313 CURVE",
"231 353 OFFCURVE",
"250 392 OFFCURVE",
"280 439 CURVE",
"263 450 LINE",
"173 371 OFFCURVE",
"136 345 OFFCURVE",
"100 313 CURVE",
"153 275 OFFCURVE",
"174 252 OFFCURVE",
"263 173 CURVE"
);
},
{
closed = 1;
nodes = (
"730 -98 LINE",
"700 -51 OFFCURVE",
"681 -11 OFFCURVE",
"659 28 CURVE",
"681 68 OFFCURVE",
"700 107 OFFCURVE",
"730 154 CURVE",
"713 165 LINE",
"623 86 OFFCURVE",
"586 60 OFFCURVE",
"550 28 CURVE",
"603 -10 OFFCURVE",
"624 -33 OFFCURVE",
"713 -112 CURVE"
);
},
{
closed = 1;
nodes = (
"280 473 LINE",
"250 520 OFFCURVE",
"231 560 OFFCURVE",
"209 599 CURVE",
"231 639 OFFCURVE",
"250 678 OFFCURVE",
"280 725 CURVE",
"263 736 LINE",
"173 657 OFFCURVE",
"136 631 OFFCURVE",
"100 599 CURVE",
"153 561 OFFCURVE",
"174 538 OFFCURVE",
"263 459 CURVE"
);
},
{
closed = 1;
nodes = (
"730 187 LINE",
"700 234 OFFCURVE",
"681 274 OFFCURVE",
"659 313 CURVE",
"681 353 OFFCURVE",
"700 392 OFFCURVE",
"730 439 CURVE",
"713 450 LINE",
"623 371 OFFCURVE",
"586 345 OFFCURVE",
"550 313 CURVE",
"603 275 OFFCURVE",
"624 252 OFFCURVE",
"713 173 CURVE"
);
},
{
closed = 1;
nodes = (
"730 473 LINE",
"700 520 OFFCURVE",
"681 560 OFFCURVE",
"659 599 CURVE",
"681 639 OFFCURVE",
"700 678 OFFCURVE",
"730 725 CURVE",
"713 736 LINE",
"623 657 OFFCURVE",
"586 631 OFFCURVE",
"550 599 CURVE",
"603 561 OFFCURVE",
"624 538 OFFCURVE",
"713 459 CURVE"
);
}
);
width = 830;
}
);
unicode = 1039D;
},
{
glyphname = u1039F;
lastChange = "2017-01-17 19:34:18 +0000";
layers = (
{
layerId = UUID0;
paths = (
{
closed = 1;
nodes = (
"221 158 LINE",
"247 311 OFFCURVE",
"286 393 OFFCURVE",
"316 466 CURVE",
"282 459 OFFCURVE",
"249 457 OFFCURVE",
"216 457 CURVE SMOOTH",
"177 457 OFFCURVE",
"138 461 OFFCURVE",
"100 466 CURVE",
"133 397 OFFCURVE",
"169 311 OFFCURVE",
"195 158 CURVE"
);
}
);
width = 416;
}
);
unicode = 1039F;
},
{
glyphname = u10384;
lastChange = "2017-01-17 19:34:18 +0000";
layers = (
{
layerId = UUID0;
paths = (
{
closed = 1;
nodes = (
"812 189 LINE",
"829 445 OFFCURVE",
"863 649 OFFCURVE",
"895 736 CURVE",
"853 725 OFFCURVE",
"815 722 OFFCURVE",
"778 722 CURVE SMOOTH",
"745 722 OFFCURVE",
"713 725 OFFCURVE",
"680 729 CURVE",
"721 638 OFFCURVE",
"756 464 OFFCURVE",
"789 189 CURVE"
);
},
{
closed = 1;
nodes = (
"169 147 OFFCURVE",
"255 183 OFFCURVE",
"408 209 CURVE",
"408 235 LINE",
"255 261 OFFCURVE",
"173 316 OFFCURVE",
"100 346 CURVE",
"107 312 OFFCURVE",
"109 276 OFFCURVE",
"109 239 CURVE SMOOTH",
"109 195 OFFCURVE",
"105 152 OFFCURVE",
"100 114 CURVE"
);
},
{
closed = 1;
nodes = (
"292 189 LINE",
"309 445 OFFCURVE",
"343 649 OFFCURVE",
"375 736 CURVE",
"333 725 OFFCURVE",
"295 722 OFFCURVE",
"258 722 CURVE SMOOTH",
"225 722 OFFCURVE",
"193 725 OFFCURVE",
"160 729 CURVE",
"201 638 OFFCURVE",
"236 464 OFFCURVE",
"269 189 CURVE"
);
},
{
closed = 1;
nodes = (
"439 147 OFFCURVE",
"525 183 OFFCURVE",
"678 209 CURVE",
"678 235 LINE",
"525 261 OFFCURVE",
"443 300 OFFCURVE",
"370 330 CURVE",
"377 296 OFFCURVE",
"379 263 OFFCURVE",
"379 230 CURVE SMOOTH",
"379 191 OFFCURVE",
"375 152 OFFCURVE",
"370 114 CURVE"
);
},
{
closed = 1;
nodes = (
"552 189 LINE",
"569 445 OFFCURVE",
"603 649 OFFCURVE",
"635 736 CURVE",
"593 725 OFFCURVE",
"555 722 OFFCURVE",
"518 722 CURVE SMOOTH",
"485 722 OFFCURVE",
"453 725 OFFCURVE",
"420 729 CURVE",
"461 638 OFFCURVE",
"496 464 OFFCURVE",
"529 189 CURVE"
);
},
{
closed = 1;
nodes = (
"877 202 OFFCURVE",
"1037 200 OFFCURVE",
"1167 209 CURVE",
"1167 235 LINE",
"1001 249 OFFCURVE",
"873 261 OFFCURVE",
"640 330 CURVE",
"647 296 OFFCURVE",
"649 263 OFFCURVE",
"649 230 CURVE SMOOTH",
"649 191 OFFCURVE",
"645 152 OFFCURVE",
"640 114 CURVE"
);
}
);
width = 1267;
}
);
unicode = 10384;
},
{
glyphname = u1038D;
lastChange = "2017-01-17 19:34:18 +0000";
layers = (
{
layerId = UUID0;
paths = (
{
closed = 1;
nodes = (
"755 -112 LINE",
"769 381 OFFCURVE",
"792 569 OFFCURVE",
"838 736 CURVE",
"798 727 OFFCURVE",
"762 723 OFFCURVE",
"727 723 CURVE SMOOTH",
"691 723 OFFCURVE",
"656 727 OFFCURVE",
"622 736 CURVE",
"677 538 OFFCURVE",
"695 407 OFFCURVE",
"729 -112 CURVE"
);
},
{
closed = 1;
nodes = (
"233 -112 LINE",
"247 381 OFFCURVE",
"270 569 OFFCURVE",
"316 736 CURVE",
"276 727 OFFCURVE",
"240 723 OFFCURVE",
"205 723 CURVE SMOOTH",
"169 723 OFFCURVE",
"134 727 OFFCURVE",
"100 736 CURVE",
"155 538 OFFCURVE",
"173 407 OFFCURVE",
"207 -112 CURVE"
);
},
{
closed = 1;
nodes = (
"494 -112 LINE",
"508 381 OFFCURVE",
"531 569 OFFCURVE",
"577 736 CURVE",
"537 727 OFFCURVE",
"501 723 OFFCURVE",
"466 723 CURVE SMOOTH",
"430 723 OFFCURVE",
"395 727 OFFCURVE",
"361 736 CURVE",
"416 538 OFFCURVE",
"434 407 OFFCURVE",
"468 -112 CURVE"
);
}
);
width = 938;
}
);
unicode = 1038D;
},
{
glyphname = u10385;
lastChange = "2017-01-17 19:34:18 +0000";
layers = (
{
layerId = UUID0;
paths = (
{
closed = 1;
nodes = (
"267 511 OFFCURVE",
"455 534 OFFCURVE",
"948 548 CURVE",
"948 574 LINE",
"429 608 OFFCURVE",
"298 626 OFFCURVE",
"100 681 CURVE",
"109 647 OFFCURVE",
"113 612 OFFCURVE",
"113 576 CURVE SMOOTH",
"113 541 OFFCURVE",
"109 505 OFFCURVE",
"100 465 CURVE"
);
},
{
closed = 1;
nodes = (
"267 -11 OFFCURVE",
"455 12 OFFCURVE",
"948 26 CURVE",
"948 52 LINE",
"429 86 OFFCURVE",
"298 104 OFFCURVE",
"100 159 CURVE",
"109 125 OFFCURVE",
"113 90 OFFCURVE",
"113 54 CURVE SMOOTH",
"113 19 OFFCURVE",
"109 -17 OFFCURVE",
"100 -57 CURVE"
);
},
{
closed = 1;
nodes = (
"267 250 OFFCURVE",
"455 273 OFFCURVE",
"948 287 CURVE",
"948 313 LINE",
"429 347 OFFCURVE",
"298 365 OFFCURVE",
"100 420 CURVE",
"109 386 OFFCURVE",
"113 351 OFFCURVE",
"113 315 CURVE SMOOTH",
"113 280 OFFCURVE",
"109 244 OFFCURVE",
"100 204 CURVE"
);
}
);
width = 1048;
}
);
unicode = 10385;
},
{
glyphname = u10387;
lastChange = "2017-01-17 19:34:18 +0000";
layers = (
{
layerId = UUID0;
paths = (
{
closed = 1;
nodes = (
"230 -112 LINE",
"256 164 OFFCURVE",
"286 349 OFFCURVE",
"325 441 CURVE",
"287 435 OFFCURVE",
"249 430 OFFCURVE",
"209 430 CURVE SMOOTH",
"178 430 OFFCURVE",
"145 433 OFFCURVE",
"110 441 CURVE",
"144 355 OFFCURVE",
"183 144 OFFCURVE",
"207 -112 CURVE"
);
},
{
closed = 1;
nodes = (
"228 328 LINE",
"250 485 OFFCURVE",
"295 663 OFFCURVE",
"325 736 CURVE",
"291 729 OFFCURVE",
"258 727 OFFCURVE",
"226 727 CURVE SMOOTH",
"186 727 OFFCURVE",
"148 731 OFFCURVE",
"110 736 CURVE",
"143 667 OFFCURVE",
"183 485 OFFCURVE",
"205 328 CURVE"
);
}
);
width = 435;
}
);
unicode = 10387;
},
{
glyphname = u10389;
lastChange = "2017-01-17 19:34:18 +0000";
layers = (
{
layerId = UUID0;
paths = (
{
closed = 1;
nodes = (
"1027 -105 LINE",
"911 79 OFFCURVE",
"835 240 OFFCURVE",
"790 324 CURVE",
"835 408 OFFCURVE",
"911 544 OFFCURVE",
"1027 728 CURVE",
"1006 743 LINE",
"807 529 OFFCURVE",
"681 409 OFFCURVE",
"598 324 CURVE",
"686 244 OFFCURVE",
"807 94 OFFCURVE",
"1006 -120 CURVE"
);
},
{
closed = 1;
nodes = (
"167 225 OFFCURVE",
"514 295 OFFCURVE",
"695 315 CURVE",
"695 339 LINE",
"514 359 OFFCURVE",
"163 403 OFFCURVE",
"100 422 CURVE",
"106 380 OFFCURVE",
"108 342 OFFCURVE",
"108 306 CURVE SMOOTH",
"108 272 OFFCURVE",
"106 239 OFFCURVE",
"104 206 CURVE"
);
},
{
closed = 1;
nodes = (
"541 -112 LINE",
"555 380 OFFCURVE",
"578 569 OFFCURVE",
"624 735 CURVE",
"587 728 OFFCURVE",
"550 724 OFFCURVE",
"514 724 CURVE SMOOTH",
"478 724 OFFCURVE",
"443 728 OFFCURVE",
"408 735 CURVE",
"463 538 OFFCURVE",
"481 406 OFFCURVE",
"515 -112 CURVE"
);
}
);
width = 1127;
}
);
unicode = 10389;
},
{
glyphname = u1038A;
lastChange = "2017-01-17 19:34:18 +0000";
layers = (
{
layerId = UUID0;
paths = (
{
closed = 1;
nodes = (
"482 428 LINE",
"508 581 OFFCURVE",
"547 663 OFFCURVE",
"577 736 CURVE",
"543 729 OFFCURVE",
"510 727 OFFCURVE",
"477 727 CURVE SMOOTH",
"438 727 OFFCURVE",
"399 731 OFFCURVE",
"361 736 CURVE",
"394 667 OFFCURVE",
"430 581 OFFCURVE",
"456 428 CURVE"
);
},
{
closed = 1;
nodes = (
"221 -112 LINE",
"247 41 OFFCURVE",
"286 123 OFFCURVE",
"316 196 CURVE",
"282 189 OFFCURVE",
"249 187 OFFCURVE",
"216 187 CURVE SMOOTH",
"177 187 OFFCURVE",
"138 191 OFFCURVE",
"100 196 CURVE",
"133 127 OFFCURVE",
"169 41 OFFCURVE",
"195 -112 CURVE"
);
},
{
closed = 1;
nodes = (
"482 -112 LINE",
"508 41 OFFCURVE",
"547 123 OFFCURVE",
"577 196 CURVE",
"543 189 OFFCURVE",
"510 187 OFFCURVE",
"477 187 CURVE SMOOTH",
"438 187 OFFCURVE",
"399 191 OFFCURVE",
"361 196 CURVE",
"394 127 OFFCURVE",
"430 41 OFFCURVE",
"456 -112 CURVE"
);
},
{
closed = 1;
nodes = (
"221 158 LINE",
"247 311 OFFCURVE",
"286 393 OFFCURVE",
"316 466 CURVE",
"282 459 OFFCURVE",
"249 457 OFFCURVE",
"216 457 CURVE SMOOTH",
"177 457 OFFCURVE",
"138 461 OFFCURVE",
"100 466 CURVE",
"133 397 OFFCURVE",
"169 311 OFFCURVE",
"195 158 CURVE"
);
},
{
closed = 1;
nodes = (
"482 158 LINE",
"508 311 OFFCURVE",
"547 393 OFFCURVE",
"577 466 CURVE",
"543 459 OFFCURVE",
"510 457 OFFCURVE",
"477 457 CURVE SMOOTH",
"438 457 OFFCURVE",
"399 461 OFFCURVE",
"361 466 CURVE",
"394 397 OFFCURVE",
"430 311 OFFCURVE",
"456 158 CURVE"
);
},
{
closed = 1;
nodes = (
"221 428 LINE",
"247 581 OFFCURVE",
"286 663 OFFCURVE",
"316 736 CURVE",
"282 729 OFFCURVE",
"249 727 OFFCURVE",
"216 727 CURVE SMOOTH",
"177 727 OFFCURVE",
"138 731 OFFCURVE",
"100 736 CURVE",
"133 667 OFFCURVE",
"169 581 OFFCURVE",
"195 428 CURVE"
);
}
);
width = 677;
}
);
unicode = 1038A;
},
{
glyphname = u1038C;
lastChange = "2017-01-17 19:34:18 +0000";
layers = (
{
layerId = UUID0;
paths = (
{
closed = 1;
nodes = (
"529 -105 LINE",
"413 79 OFFCURVE",
"337 240 OFFCURVE",
"292 324 CURVE",
"337 408 OFFCURVE",
"413 544 OFFCURVE",
"529 728 CURVE",
"508 743 LINE",
"309 529 OFFCURVE",
"183 409 OFFCURVE",
"100 324 CURVE",
"188 244 OFFCURVE",
"309 94 OFFCURVE",
"508 -120 CURVE"
);
},
{
closed = 1;
nodes = (
"685 -112 LINE",
"699 381 OFFCURVE",
"722 569 OFFCURVE",
"768 736 CURVE",
"728 727 OFFCURVE",
"692 723 OFFCURVE",
"657 723 CURVE SMOOTH",
"621 723 OFFCURVE",
"586 727 OFFCURVE",
"552 736 CURVE",
"607 538 OFFCURVE",
"625 407 OFFCURVE",
"659 -112 CURVE"
);
},
{
closed = 1;
nodes = (
"876 392 OFFCURVE",
"967 543 OFFCURVE",
"1022 618 CURVE",
"940 620 OFFCURVE",
"887 636 OFFCURVE",
"816 678 CURVE",
"817 668 OFFCURVE",
"817 656 OFFCURVE",
"817 643 CURVE SMOOTH",
"817 542 OFFCURVE",
"796 367 OFFCURVE",
"745 145 CURVE",
"767 138 LINE"
);
}
);
width = 1122;
}
);
unicode = 1038C;
},
{
glyphname = u1039A;
lastChange = "2017-01-17 19:34:18 +0000";
layers = (
{
layerId = UUID0;
paths = (
{
closed = 1;
nodes = (
"267 250 OFFCURVE",
"455 273 OFFCURVE",
"948 287 CURVE",
"948 313 LINE",
"429 347 OFFCURVE",
"298 365 OFFCURVE",
"100 420 CURVE",
"109 386 OFFCURVE",
"113 351 OFFCURVE",
"113 315 CURVE SMOOTH",
"113 280 OFFCURVE",
"109 244 OFFCURVE",
"100 204 CURVE"
);
}
);
width = 1048;
}
);
unicode = 1039A;
},
{
glyphname = u10394;
lastChange = "2017-01-17 19:34:18 +0000";
layers = (
{
layerId = UUID0;
paths = (
{
closed = 1;
nodes = (
"267 401 OFFCURVE",
"455 424 OFFCURVE",
"948 438 CURVE",
"948 464 LINE",
"429 498 OFFCURVE",
"298 516 OFFCURVE",
"100 571 CURVE",
"109 537 OFFCURVE",
"113 502 OFFCURVE",
"113 466 CURVE SMOOTH",
"113 431 OFFCURVE",
"109 395 OFFCURVE",
"100 355 CURVE"
);
},
{
closed = 1;
nodes = (
"267 147 OFFCURVE",
"455 170 OFFCURVE",
"948 184 CURVE",
"948 210 LINE",
"429 244 OFFCURVE",
"298 262 OFFCURVE",
"100 317 CURVE",
"109 283 OFFCURVE",
"113 248 OFFCURVE",
"113 212 CURVE SMOOTH",
"113 177 OFFCURVE",
"109 141 OFFCURVE",
"100 101 CURVE"
);
}
);
width = 1048;
}
);
unicode = 10394;
},
{
glyphname = u10395;
lastChange = "2017-01-17 19:34:18 +0000";
layers = (
{
layerId = UUID0;
paths = (
{
closed = 1;
nodes = (
"653 -108 LINE",
"688 411 OFFCURVE",
"706 542 OFFCURVE",
"761 740 CURVE",
"727 731 OFFCURVE",
"692 727 OFFCURVE",
"656 727 CURVE SMOOTH",
"621 727 OFFCURVE",
"585 731 OFFCURVE",
"545 740 CURVE",
"591 573 OFFCURVE",
"614 385 OFFCURVE",
"627 -108 CURVE"
);
},
{
closed = 1;
nodes = (
"393 -108 LINE",
"427 411 OFFCURVE",
"445 542 OFFCURVE",
"500 740 CURVE",
"466 731 OFFCURVE",
"431 727 OFFCURVE",
"395 727 CURVE SMOOTH",
"360 727 OFFCURVE",
"324 731 OFFCURVE",
"284 740 CURVE",
"330 573 OFFCURVE",
"353 385 OFFCURVE",
"367 -108 CURVE"
);
}
);
width = 1048;
}
);
unicode = 10395;
},
{
glyphname = u10396;
lastChange = "2017-01-17 19:34:18 +0000";
layers = (
{
layerId = UUID0;
paths = (
{
closed = 1;
nodes = (
"1027 -105 LINE",
"911 79 OFFCURVE",
"835 240 OFFCURVE",
"790 324 CURVE",
"835 408 OFFCURVE",
"911 544 OFFCURVE",
"1027 728 CURVE",
"1006 743 LINE",
"807 529 OFFCURVE",
"681 409 OFFCURVE",
"598 324 CURVE",
"686 244 OFFCURVE",
"807 94 OFFCURVE",
"1006 -120 CURVE"
);
},
{
closed = 1;
nodes = (
"167 225 OFFCURVE",
"514 295 OFFCURVE",
"695 315 CURVE",
"695 339 LINE",
"514 359 OFFCURVE",
"163 403 OFFCURVE",
"100 422 CURVE",
"106 380 OFFCURVE",
"108 342 OFFCURVE",
"108 306 CURVE SMOOTH",
"108 272 OFFCURVE",
"106 239 OFFCURVE",
"104 206 CURVE"
);
}
);
width = 1127;
}
);
unicode = 10396;
},
{
glyphname = u1039B;
lastChange = "2017-01-17 19:34:18 +0000";
layers = (
{
layerId = UUID0;
paths = (
{
closed = 1;
nodes = (
"267 511 OFFCURVE",
"455 534 OFFCURVE",
"948 548 CURVE",
"948 574 LINE",
"429 608 OFFCURVE",
"298 626 OFFCURVE",
"100 681 CURVE",
"109 647 OFFCURVE",
"113 612 OFFCURVE",
"113 576 CURVE SMOOTH",
"113 541 OFFCURVE",
"109 505 OFFCURVE",
"100 465 CURVE"
);
},
{
closed = 1;
nodes = (
"291 -381 LINE",
"317 -228 OFFCURVE",
"356 -146 OFFCURVE",
"386 -73 CURVE",
"352 -80 OFFCURVE",
"319 -82 OFFCURVE",
"286 -82 CURVE SMOOTH",
"247 -82 OFFCURVE",
"208 -78 OFFCURVE",
"170 -73 CURVE",
"203 -142 OFFCURVE",
"239 -228 OFFCURVE",
"265 -381 CURVE"
);
},
{
closed = 1;
nodes = (
"267 -11 OFFCURVE",
"455 12 OFFCURVE",
"948 26 CURVE",
"948 52 LINE",
"429 86 OFFCURVE",
"298 104 OFFCURVE",
"100 159 CURVE",
"109 125 OFFCURVE",
"113 90 OFFCURVE",
"113 54 CURVE SMOOTH",
"113 19 OFFCURVE",
"109 -17 OFFCURVE",
"100 -57 CURVE"
);
},
{
closed = 1;
nodes = (
"267 250 OFFCURVE",
"455 273 OFFCURVE",
"948 287 CURVE",
"948 313 LINE",
"429 347 OFFCURVE",
"298 365 OFFCURVE",
"100 420 CURVE",
"109 386 OFFCURVE",
"113 351 OFFCURVE",
"113 315 CURVE SMOOTH",
"113 280 OFFCURVE",
"109 244 OFFCURVE",
"100 204 CURVE"
);
}
);
width = 1048;
}
);
unicode = 1039B;
},
{
glyphname = u10393;
lastChange = "2017-01-17 19:34:18 +0000";
layers = (
{
layerId = UUID0;
paths = (
{
closed = 1;
nodes = (
"529 -105 LINE",
"413 79 OFFCURVE",
"337 240 OFFCURVE",
"292 324 CURVE",
"337 408 OFFCURVE",
"413 544 OFFCURVE",
"529 728 CURVE",
"508 743 LINE",
"309 529 OFFCURVE",
"183 409 OFFCURVE",
"100 324 CURVE",
"188 244 OFFCURVE",
"309 94 OFFCURVE",
"508 -120 CURVE"
);
}
);
width = 629;
}
);
unicode = 10393;
},
{
glyphname = u10392;
lastChange = "2017-01-17 19:34:18 +0000";
layers = (
{
layerId = UUID0;
paths = (
{
closed = 1;
nodes = (
"327 -112 LINE",
"360 163 OFFCURVE",
"391 294 OFFCURVE",
"423 381 CURVE",
"383 371 OFFCURVE",
"349 366 OFFCURVE",
"316 366 CURVE SMOOTH",
"282 366 OFFCURVE",
"248 371 OFFCURVE",
"208 381 CURVE",
"240 294 OFFCURVE",
"287 144 OFFCURVE",
"304 -112 CURVE"
);
},
{
closed = 1;
nodes = (
"219 363 LINE",
"256 593 OFFCURVE",
"283 649 OFFCURVE",
"315 736 CURVE",
"275 726 OFFCURVE",
"241 721 OFFCURVE",
"208 721 CURVE SMOOTH",
"174 721 OFFCURVE",
"140 726 OFFCURVE",
"100 736 CURVE",
"132 649 OFFCURVE",
"159 593 OFFCURVE",
"196 363 CURVE"
);
},
{
closed = 1;
nodes = (
"436 363 LINE",
"473 593 OFFCURVE",
"500 649 OFFCURVE",
"532 736 CURVE",
"492 726 OFFCURVE",
"458 721 OFFCURVE",
"425 721 CURVE SMOOTH",
"391 721 OFFCURVE",
"357 726 OFFCURVE",
"317 736 CURVE",
"349 649 OFFCURVE",
"376 593 OFFCURVE",
"413 363 CURVE"
);
}
);
width = 632;
}
);
unicode = 10392;
},
{
glyphname = u10391;
lastChange = "2017-01-17 19:34:18 +0000";
layers = (
{
layerId = UUID0;
paths = (
{
closed = 1;
nodes = (
"1279 -105 LINE",
"1163 79 OFFCURVE",
"1087 240 OFFCURVE",
"1042 324 CURVE",
"1087 408 OFFCURVE",
"1163 544 OFFCURVE",
"1279 728 CURVE",
"1258 743 LINE",
"1059 529 OFFCURVE",
"933 409 OFFCURVE",
"850 324 CURVE",
"938 244 OFFCURVE",
"1059 94 OFFCURVE",
"1258 -120 CURVE"
);
},
{
closed = 1;
nodes = (
"267 147 OFFCURVE",
"455 170 OFFCURVE",
"948 184 CURVE",
"948 210 LINE",
"429 244 OFFCURVE",
"298 262 OFFCURVE",
"100 317 CURVE",
"109 283 OFFCURVE",
"113 248 OFFCURVE",
"113 212 CURVE SMOOTH",
"113 177 OFFCURVE",
"109 141 OFFCURVE",
"100 101 CURVE"
);
},
{
closed = 1;
nodes = (
"267 401 OFFCURVE",
"455 424 OFFCURVE",
"948 438 CURVE",
"948 464 LINE",
"429 498 OFFCURVE",
"298 516 OFFCURVE",
"100 571 CURVE",
"109 537 OFFCURVE",
"113 502 OFFCURVE",
"113 466 CURVE SMOOTH",
"113 431 OFFCURVE",
"109 395 OFFCURVE",
"100 355 CURVE"
);
}
);
width = 1379;
}
);
unicode = 10391;
},
{
glyphname = u10398;
lastChange = "2017-01-17 19:34:18 +0000";
layers = (
{
layerId = UUID0;
paths = (
{
closed = 1;
nodes = (
"542 -2 LINE",
"426 132 OFFCURVE",
"337 259 OFFCURVE",
"292 321 CURVE",
"337 382 OFFCURVE",
"426 491 OFFCURVE",
"542 625 CURVE",
"528 645 LINE",
"329 489 OFFCURVE",
"183 383 OFFCURVE",
"100 321 CURVE",
"188 262 OFFCURVE",
"329 134 OFFCURVE",
"528 -22 CURVE"
);
},
{
closed = 1;
nodes = (
"393 -112 LINE",
"407 381 OFFCURVE",
"430 569 OFFCURVE",
"476 736 CURVE",
"436 727 OFFCURVE",
"400 723 OFFCURVE",
"365 723 CURVE SMOOTH",
"329 723 OFFCURVE",
"294 727 OFFCURVE",
"260 736 CURVE",
"315 538 OFFCURVE",
"333 407 OFFCURVE",
"367 -112 CURVE"
);
}
);
width = 642;
}
);
unicode = 10398;
},
{
glyphname = u1038F;
lastChange = "2017-01-17 19:34:18 +0000";
layers = (
{
layerId = UUID0;
paths = (
{
closed = 1;
nodes = (
"529 -105 LINE",
"413 79 OFFCURVE",
"337 240 OFFCURVE",
"292 324 CURVE",
"337 408 OFFCURVE",
"413 544 OFFCURVE",
"529 728 CURVE",
"508 743 LINE",
"309 529 OFFCURVE",
"183 409 OFFCURVE",
"100 324 CURVE",
"188 244 OFFCURVE",
"309 94 OFFCURVE",
"508 -120 CURVE"
);
},
{
closed = 1;
nodes = (
"597 181 OFFCURVE",
"757 543 OFFCURVE",
"812 618 CURVE",
"730 620 OFFCURVE",
"677 636 OFFCURVE",
"606 678 CURVE",
"606 677 OFFCURVE",
"606 670 OFFCURVE",
"606 669 CURVE SMOOTH",
"606 555 OFFCURVE",
"522 180 OFFCURVE",
"466 -66 CURVE",
"488 -73 LINE"
);
}
);
width = 912;
}
);
unicode = 1038F;
},
{
glyphname = u1039C;
lastChange = "2017-01-17 19:34:18 +0000";
layers = (
{
layerId = UUID0;
paths = (
{
closed = 1;
nodes = (
"267 150 OFFCURVE",
"455 173 OFFCURVE",
"948 187 CURVE",
"948 213 LINE",
"429 247 OFFCURVE",
"298 265 OFFCURVE",
"100 320 CURVE",
"109 286 OFFCURVE",
"113 251 OFFCURVE",
"113 215 CURVE SMOOTH",
"113 180 OFFCURVE",
"109 144 OFFCURVE",
"100 104 CURVE"
);
},
{
closed = 1;
nodes = (
"292 189 LINE",
"309 445 OFFCURVE",
"343 649 OFFCURVE",
"375 736 CURVE",
"333 725 OFFCURVE",
"295 722 OFFCURVE",
"258 722 CURVE SMOOTH",
"225 722 OFFCURVE",
"193 725 OFFCURVE",
"160 729 CURVE",
"201 638 OFFCURVE",
"236 464 OFFCURVE",
"269 189 CURVE"
);
},
{
closed = 1;
nodes = (
"552 189 LINE",
"569 445 OFFCURVE",
"603 649 OFFCURVE",
"635 736 CURVE",
"593 725 OFFCURVE",
"555 722 OFFCURVE",
"518 722 CURVE SMOOTH",
"485 722 OFFCURVE",
"453 725 OFFCURVE",
"420 729 CURVE",
"461 638 OFFCURVE",
"496 464 OFFCURVE",
"529 189 CURVE"
);
},
{
closed = 1;
nodes = (
"812 189 LINE",
"829 445 OFFCURVE",
"863 649 OFFCURVE",
"895 736 CURVE",
"853 725 OFFCURVE",
"815 722 OFFCURVE",
"778 722 CURVE SMOOTH",
"745 722 OFFCURVE",
"713 725 OFFCURVE",
"680 729 CURVE",
"721 638 OFFCURVE",
"756 464 OFFCURVE",
"789 189 CURVE"
);
}
);
width = 1048;
}
);
unicode = 1039C;
},
{
glyphname = u1038E;
lastChange = "2017-01-17 19:34:18 +0000";
layers = (
{
layerId = UUID0;
paths = (
{
closed = 1;
nodes = (
"653 -108 LINE",
"688 411 OFFCURVE",
"706 542 OFFCURVE",
"761 740 CURVE",
"727 731 OFFCURVE",
"692 727 OFFCURVE",
"656 727 CURVE SMOOTH",
"621 727 OFFCURVE",
"585 731 OFFCURVE",
"545 740 CURVE",
"591 573 OFFCURVE",
"614 385 OFFCURVE",
"627 -108 CURVE"
);
},
{
closed = 1;
nodes = (
"221 496 OFFCURVE",
"553 543 OFFCURVE",
"716 562 CURVE",
"716 585 LINE",
"553 604 OFFCURVE",
"220 659 OFFCURVE",
"100 682 CURVE",
"107 648 OFFCURVE",
"110 615 OFFCURVE",
"110 582 CURVE SMOOTH",
"110 543 OFFCURVE",
"106 505 OFFCURVE",
"100 467 CURVE"
);
}
);
width = 1048;
}
);
unicode = 1038E;
},
{
glyphname = u10399;
lastChange = "2017-01-17 19:34:18 +0000";
layers = (
{
layerId = UUID0;
paths = (
{
closed = 1;
nodes = (
"455 12 OFFCURVE",
"725 271 OFFCURVE",
"912 446 CURVE",
"898 465 LINE",
"666 315 OFFCURVE",
"359 128 OFFCURVE",
"271 97 CURVE",
"338 49 OFFCURVE",
"373 7 OFFCURVE",
"409 -68 CURVE"
);
},
{
closed = 1;
nodes = (
"267 250 OFFCURVE",
"455 273 OFFCURVE",
"948 287 CURVE",
"948 313 LINE",
"429 347 OFFCURVE",
"298 365 OFFCURVE",
"100 420 CURVE",
"109 386 OFFCURVE",
"113 351 OFFCURVE",
"113 315 CURVE SMOOTH",
"113 280 OFFCURVE",
"109 244 OFFCURVE",
"100 204 CURVE"
);
}
);
width = 1048;
}
);
unicode = 10399;
},
{
glyphname = u10386;
lastChange = "2017-01-17 19:34:18 +0000";
layers = (
{
layerId = UUID0;
paths = (
{
closed = 1;
nodes = (
"873 343 OFFCURVE",
"1054 383 OFFCURVE",
"1212 405 CURVE",
"1211 428 LINE",
"1055 450 OFFCURVE",
"877 495 OFFCURVE",
"803 525 CURVE",
"810 491 OFFCURVE",
"813 458 OFFCURVE",
"813 425 CURVE SMOOTH",
"813 386 OFFCURVE",
"809 348 OFFCURVE",
"803 310 CURVE"
);
},
{
closed = 1;
nodes = (
"170 217 OFFCURVE",
"351 257 OFFCURVE",
"509 279 CURVE",
"509 302 LINE",
"353 324 OFFCURVE",
"174 369 OFFCURVE",
"100 399 CURVE",
"107 365 OFFCURVE",
"110 332 OFFCURVE",
"110 299 CURVE SMOOTH",
"110 260 OFFCURVE",
"106 222 OFFCURVE",
"100 184 CURVE"
);
},
{
closed = 1;
nodes = (
"576 343 OFFCURVE",
"757 383 OFFCURVE",
"915 405 CURVE",
"914 428 LINE",
"758 450 OFFCURVE",
"580 495 OFFCURVE",
"506 525 CURVE",
"513 491 OFFCURVE",
"516 458 OFFCURVE",
"516 425 CURVE SMOOTH",
"516 386 OFFCURVE",
"512 348 OFFCURVE",
"506 310 CURVE"
);
},
{
closed = 1;
nodes = (
"170 471 OFFCURVE",
"351 511 OFFCURVE",
"509 533 CURVE",
"509 556 LINE",
"353 578 OFFCURVE",
"174 623 OFFCURVE",
"100 653 CURVE",
"107 619 OFFCURVE",
"110 586 OFFCURVE",
"110 553 CURVE SMOOTH",
"110 514 OFFCURVE",
"106 476 OFFCURVE",
"100 438 CURVE"
);
}
);
width = 1312;
}
);
unicode = 10386;
},
{
glyphname = u10397;
lastChange = "2017-01-17 19:34:18 +0000";
layers = (
{
layerId = UUID0;
paths = (
{
closed = 1;
nodes = (
"936 343 OFFCURVE",
"1117 383 OFFCURVE",
"1275 405 CURVE",
"1274 428 LINE",
"1118 450 OFFCURVE",
"940 495 OFFCURVE",
"866 525 CURVE",
"873 491 OFFCURVE",
"876 458 OFFCURVE",
"876 425 CURVE SMOOTH",
"876 386 OFFCURVE",
"872 348 OFFCURVE",
"866 310 CURVE"
);
},
{
closed = 1;
nodes = (
"170 217 OFFCURVE",
"350 257 OFFCURVE",
"508 279 CURVE",
"508 302 LINE",
"352 324 OFFCURVE",
"174 369 OFFCURVE",
"100 399 CURVE",
"107 365 OFFCURVE",
"110 332 OFFCURVE",
"110 299 CURVE SMOOTH",
"110 260 OFFCURVE",
"106 222 OFFCURVE",
"100 184 CURVE"
);
},
{
closed = 1;
nodes = (
"530 217 OFFCURVE",
"710 257 OFFCURVE",
"868 279 CURVE",
"868 302 LINE",
"712 324 OFFCURVE",
"534 369 OFFCURVE",
"460 399 CURVE",
"467 365 OFFCURVE",
"470 332 OFFCURVE",
"470 299 CURVE SMOOTH",
"470 260 OFFCURVE",
"466 222 OFFCURVE",
"460 184 CURVE"
);
},
{
closed = 1;
nodes = (
"534 623 OFFCURVE"
);
},
{
closed = 1;
nodes = (
"170 471 OFFCURVE",
"350 511 OFFCURVE",
"508 533 CURVE",
"508 556 LINE",
"352 578 OFFCURVE",
"174 623 OFFCURVE",
"100 653 CURVE",
"107 619 OFFCURVE",
"110 586 OFFCURVE",
"110 553 CURVE SMOOTH",
"110 514 OFFCURVE",
"106 476 OFFCURVE",
"100 438 CURVE"
);
},
{
closed = 1;
nodes = (
"530 471 OFFCURVE",
"710 511 OFFCURVE",
"868 533 CURVE",
"868 556 LINE",
"712 578 OFFCURVE",
"534 623 OFFCURVE",
"460 653 CURVE",
"467 619 OFFCURVE",
"470 586 OFFCURVE",
"470 553 CURVE SMOOTH",
"470 514 OFFCURVE",
"466 476 OFFCURVE",
"460 438 CURVE"
);
}
);
width = 1375;
}
);
unicode = 10397;
},
{
glyphname = u1038B;
lastChange = "2017-01-17 19:34:18 +0000";
layers = (
{
layerId = UUID0;
paths = (
{
closed = 1;
nodes = (
"626 343 OFFCURVE",
"1049 386 OFFCURVE",
"1212 405 CURVE",
"1212 428 LINE",
"1049 447 OFFCURVE",
"626 502 OFFCURVE",
"506 525 CURVE",
"513 491 OFFCURVE",
"516 458 OFFCURVE",
"516 425 CURVE SMOOTH",
"516 386 OFFCURVE",
"512 348 OFFCURVE",
"506 310 CURVE"
);
},
{
closed = 1;
nodes = (
"170 217 OFFCURVE",
"351 257 OFFCURVE",
"509 279 CURVE",
"509 302 LINE",
"353 324 OFFCURVE",
"174 369 OFFCURVE",
"100 399 CURVE",
"107 365 OFFCURVE",
"110 332 OFFCURVE",
"110 299 CURVE SMOOTH",
"110 260 OFFCURVE",
"106 222 OFFCURVE",
"100 184 CURVE"
);
},
{
closed = 1;
nodes = (
"170 471 OFFCURVE",
"351 511 OFFCURVE",
"509 533 CURVE",
"509 556 LINE",
"353 578 OFFCURVE",
"174 623 OFFCURVE",
"100 653 CURVE",
"107 619 OFFCURVE",
"110 586 OFFCURVE",
"110 553 CURVE SMOOTH",
"110 514 OFFCURVE",
"106 476 OFFCURVE",
"100 438 CURVE"
);
}
);
width = 1312;
}
);
unicode = 1038B;
},
{
glyphname = u10380;
lastChange = "2017-01-17 19:34:18 +0000";
layers = (
{
layerId = UUID0;
paths = (
{
closed = 1;
nodes = (
"452 156 OFFCURVE",
"606 191 OFFCURVE",
"881 224 CURVE",
"881 247 LINE",
"625 264 OFFCURVE",
"441 298 OFFCURVE",
"354 330 CURVE",
"365 288 OFFCURVE",
"368 250 OFFCURVE",
"368 213 CURVE SMOOTH",
"368 180 OFFCURVE",
"365 148 OFFCURVE",
"361 115 CURVE"
);
},
{
closed = 1;
nodes = (
"152 136 OFFCURVE",
"224 178 OFFCURVE",
"374 213 CURVE",
"374 235 LINE",
"235 254 OFFCURVE",
"146 296 OFFCURVE",
"100 330 CURVE",
"108 289 OFFCURVE",
"111 251 OFFCURVE",
"111 214 CURVE SMOOTH",
"111 174 OFFCURVE",
"107 136 OFFCURVE",
"103 97 CURVE"
);
}
);
width = 981;
}
);
unicode = 10380;
},
